<?xml version="1.0" encoding="UTF-8" standalone="no"?>
<svg width="349px" height="88px" viewBox="0 0 349 88" version="1.1" xmlns="http://www.w3.org/2000/svg" xmlns:xlink="http://www.w3.org/1999/xlink" xmlns:sketch="http://www.bohemiancoding.com/sketch/ns">
    <!-- Generator: Sketch 3.3.3 (12081) - http://www.bohemiancoding.com/sketch -->
    <title>Slice 1</title>
    <desc>Created with Sketch.</desc>
    <defs></defs>
    <g id="Page-1" stroke="none" stroke-width="1" fill="none" fill-rule="evenodd" sketch:type="MSPage">
        <g id="levvel-light" sketch:type="MSLayerGroup">
            <path d="M46.123,70.196 L46.123,84.2065 L1.10075,84.2065 L1.10075,0.38675 L15.1095,0.38675 L15.1095,70.196 L46.123,70.196" id="Fill-1" fill="#A4D9C9" sketch:type="MSShapeGroup"></path>
            <path d="M73.57,14.3955 L73.57,35.35175 L108.41425,35.35175 L108.41425,49.23975 L73.57,49.23975 L73.57,70.196 L115.479,70.196 L115.479,84.2065 L59.5595,84.2065 L59.5595,0.38675 L115.479,0.38675 L115.479,14.3955 L73.57,14.3955" id="Fill-2" fill="#A4D9C9" sketch:type="MSShapeGroup"></path>
            <path d="M245.7105,14.3955 L245.7105,35.35175 L280.5565,35.35175 L280.5565,49.23975 L245.7105,49.23975 L245.7105,70.196 L287.62125,70.196 L287.62125,84.2065 L231.70175,84.2065 L231.70175,0.38675 L287.62125,0.38675 L287.62125,14.3955 L245.7105,14.3955" id="Fill-3" fill="#E26244" sketch:type="MSShapeGroup"></path>
            <path d="M346.51225,70.196 L346.51225,84.2065 L301.49,84.2065 L301.49,0.38675 L315.49875,0.38675 L315.49875,70.196 L346.51225,70.196" id="Fill-4" fill="#E26244" sketch:type="MSShapeGroup"></path>
            <path d="M156.19625,0.38675 L141.1095,0.38675 L161.8995,43.23025 L169.6135,27.08475 L156.19625,0.38675" id="Fill-5" fill="#E26244" sketch:type="MSShapeGroup"></path>
            <path d="M223.90025,0.38675 L208.8135,0.38675 L182.7105,53.14925 L182.6965,53.12475 L166.369,86.36075 L182.8295,86.36075 L223.90025,0.38675" id="Fill-6" fill="#E26244" sketch:type="MSShapeGroup"></path>
            <path d="M203.03325,0.38675 L161.96075,86.36075 L120.24075,0.38675 L135.32925,0.38675 L161.84175,53.14925 L187.94475,0.38675 L203.03325,0.38675" id="Fill-7" fill="#A4D9C9" sketch:type="MSShapeGroup"></path>
        </g>
    </g>
</svg>